<?xml version="1.0" standalone="no"?>
<!DOCTYPE svg PUBLIC "-//W3C//DTD SVG 20010904//EN"
 "http://www.w3.org/TR/2001/REC-SVG-20010904/DTD/svg10.dtd">
<svg version="1.0" xmlns="http://www.w3.org/2000/svg"
 width="1026.000000pt" height="702.000000pt" viewBox="0 0 1026.000000 702.000000"
 preserveAspectRatio="xMidYMid meet">

<g transform="translate(0.000000,702.000000) scale(0.100000,-0.100000)"
fill="#000000" stroke="none">
<path d="M1090 5444 c0 -4 95 -193 211 -420 l211 -414 884 0 884 0 0 -290 0
-290 -770 0 c-423 0 -770 -3 -770 -7 0 -4 95 -186 212 -405 l212 -398 558 0
558 0 0 -270 0 -270 -470 0 c-258 0 -470 -3 -470 -6 0 -7 395 -767 416 -801
l14 -23 740 0 c538 0 740 3 740 11 0 23 93 150 142 194 106 96 149 97 329 11
329 -156 647 -215 998 -186 334 27 604 128 790 296 l51 46 0 -166 0 -166 743
0 742 1 205 394 c113 217 206 402 208 410 3 13 -55 15 -467 15 l-471 0 0 265
0 265 554 0 554 0 211 396 c116 217 211 397 211 400 0 2 -344 4 -765 4 l-765
0 0 285 0 285 874 0 873 0 212 414 c116 228 211 417 211 420 0 3 -704 6 -1565
6 l-1565 0 0 -41 c0 -32 -10 -56 -46 -110 -65 -98 -91 -114 -184 -113 -65 0
-91 7 -195 48 -66 27 -157 61 -203 77 -374 128 -838 107 -1157 -54 -197 -99
-373 -276 -480 -483 l-45 -88 0 382 0 382 -1580 0 c-869 0 -1580 -3 -1580 -6z
m4470 -204 c174 -17 326 -69 470 -162 77 -50 214 -181 281 -269 69 -91 172
-267 216 -372 l33 -79 0 -231 0 -231 -27 26 c-59 55 -266 173 -424 241 -139
60 -306 113 -605 192 -385 102 -497 148 -601 248 -85 81 -107 129 -107 232 0
128 54 223 170 300 137 91 352 129 594 105z m-1157 -1736 c187 -198 567 -376
1056 -494 218 -53 316 -83 431 -132 196 -83 286 -147 331 -236 21 -42 24 -60
24 -162 0 -103 -3 -121 -26 -170 -72 -152 -231 -241 -479 -270 -204 -24 -436
-7 -613 45 -387 112 -631 378 -824 900 l-48 130 -3 305 -2 305 41 -73 c22 -41
73 -107 112 -148z"/>
</g>
</svg>
